<?xml version="1.0" encoding="UTF-8"?>
<svg width="100" height="100" viewBox="0 0 100 100" fill="none" xmlns="http://www.w3.org/2000/svg">
  <circle cx="50" cy="50" r="48" fill="white" stroke="#009245" stroke-width="4"/>
  <circle cx="50" cy="50" r="45" fill="#009245"/>
  <path d="M50 15 C30 15 15 30 15 50 C15 70 30 85 50 85 C70 85 85 70 85 50 C85 30 70 15 50 15 Z" fill="#009245" stroke="white" stroke-width="1"/>
  <path d="M50 25 C35 25 25 35 25 50 C25 65 35 75 50 75 C65 75 75 65 75 50 C75 35 65 25 50 25 Z" fill="#009245" stroke="white" stroke-width="1"/>
  <!-- Stylized motorbike symbol -->
  <path d="M40 45 Q45 35 55 45 T65 50 Q60 60 50 55 T40 45" fill="white" stroke="white" stroke-width="1"/>
  <!-- Wreath elements around the circle -->
  <path d="M25 40 Q15 50 25 60" fill="none" stroke="white" stroke-width="1.5"/>
  <path d="M75 40 Q85 50 75 60" fill="none" stroke="white" stroke-width="1.5"/>
  <!-- Text path around the circle (simplified representation) -->
  <path id="textPath" d="M50 15 A35 35 0 0 1 50 85 A35 35 0 0 1 50 15" fill="none"/>
  <text font-family="Arial" font-size="6" fill="white">
    <textPath href="#textPath" startOffset="30%">eMandi Portal</textPath>
  </text>
</svg> 