<svg xmlns="http://www.w3.org/2000/svg" width="2499" height="2500" viewBox="0 -0.06 499.999 500.119">
	<defs>
		<linearGradient id="purpleGradient" x1="0%" y1="0%" x2="100%" y2="100%">
			<stop offset="40%" style="stop-color:#a03ca0;stop-opacity:1" />
			<stop offset="100%" style="stop-color:#3b2e8a;stop-opacity:1" />
		</linearGradient>
	</defs>
	<path d="M499.999 250c.033 138.071-111.869 250.026-249.94 250.06C111.989 500.092.032 388.189 0 250.118V250C-.033 111.929 111.869-.026 249.941-.06 388.012-.092 499.967 111.81 500 249.881l-.001.119z" fill="url(#purpleGradient)"/>
	<path d="M295 250c0 24.853-20.147 45-45 45-24.854 0-45-20.147-45-45s20.146-45 45-45c24.853 0 45 20.147 45 45z" fill="#fff"/>
	<path fill="#fff" d="M234.483 282.756h31.035V500h-31.035z"/>
</svg>